<svg id="Layer_1" data-name="Layer 1" xmlns="http://www.w3.org/2000/svg" xmlns:xlink="http://www.w3.org/1999/xlink" viewBox="0 0 444.64 104.49">
  <defs>
    <clipPath id="clip-path">
      <path d="M157.9,49.71H172l4.91,38.76,11-24.54a58.61,58.61,0,0,0,2.6-7.41,51.41,51.41,0,0,0,1.38-7.59h12.58a34.2,34.2,0,0,1-1.75,10.13,90.87,90.87,0,0,1-4.54,11l-15.63,32H166.69Z" style="fill: none"/>
    </clipPath>
    <clipPath id="clip-path-2">
      <rect x="-10.1" y="-63.99" width="470" height="237" style="fill: none"/>
    </clipPath>
    <clipPath id="clip-path-3">
      <path d="M214.18,48.92h14.16l-8,51.48H206Zm1.62-8.11a1.46,1.46,0,0,1-.28-1.39L217,30a2.09,2.09,0,0,1,2.17-2h11c1.15,0,1.66.67,1.53,2l-1.43,9.39a2.17,2.17,0,0,1-2.2,1.92h-11a1.7,1.7,0,0,1-1.34-.53Z" style="fill: none"/>
    </clipPath>
    <clipPath id="clip-path-5">
      <path d="M231.71,99.69,233,91.28h22.09q5.28,0,6-3.77l.28-2.13.09-1.16q0-2.89-4-2.9h-7.55q-6.62,0-10.53-2.61t-3.91-7.93a23.53,23.53,0,0,1,.38-4.35l.56-3.68a15.63,15.63,0,0,1,5.9-10.2q4.77-3.63,15-3.62a85.82,85.82,0,0,1,10,.67,61.19,61.19,0,0,1,9.3,1.74l-1.42,8.42H254.55a6.75,6.75,0,0,0-4,.91,5,5,0,0,0-1.7,3l-.28,1.45a9.75,9.75,0,0,0-.29,2,2.15,2.15,0,0,0,1,2,6.6,6.6,0,0,0,3.36.63h8.49q6,0,9.68,2.76a9,9,0,0,1,3.63,7.59,34.07,34.07,0,0,1-.29,4.16l-.66,4.54q-1,7-6.51,10.06T251.88,102q-12.65,0-20.2-2.32" style="fill: none"/>
    </clipPath>
    <clipPath id="clip-path-7">
      <path d="M288,48.92h14.17l-8,51.48H279.85Zm1.63-8.11a1.49,1.49,0,0,1-.29-1.39L290.78,30A2.09,2.09,0,0,1,293,28H304c1.15,0,1.66.67,1.53,2l-1.44,9.39a2.15,2.15,0,0,1-2.2,1.92H291a1.69,1.69,0,0,1-1.39-.53Z" style="fill: none"/>
    </clipPath>
    <clipPath id="clip-path-9">
      <path d="M307.07,98.79q-3.15-3.23-3.16-9.09a42.37,42.37,0,0,1,.49-6.36l5.44-34.41h14.38l-5.05,32.61a17.18,17.18,0,0,0-.2,2.15Q319,89,325.1,89a16.78,16.78,0,0,0,6.07-1.07,24.73,24.73,0,0,0,5.68-3.23l5.63-35.78h14.38l-8.16,52.5H335.88L335.1,96a37.54,37.54,0,0,1-8.55,4.55,29.34,29.34,0,0,1-9.71,1.41q-6.61,0-9.77-3.22" style="fill: none"/>
    </clipPath>
    <clipPath id="clip-path-11">
      <path d="M366.43,49.61h11.66L379.71,55a32.35,32.35,0,0,1,8.06-4.44,27,27,0,0,1,9.67-1.61,13.93,13.93,0,0,1,7.49,1.85,12.9,12.9,0,0,1,4.74,5.86,28.14,28.14,0,0,1,9.05-5.76,26.59,26.59,0,0,1,9.72-2q13.47,0,13.46,12.58a51,51,0,0,1-.66,7.81l-5,32.69h-14l4.93-32.3a15.62,15.62,0,0,0,.19-2q0-5.76-6.26-5.75-5.69,0-11.47,4.68a29.31,29.31,0,0,1-.28,3.51L404.42,102h-14l4.93-32c.12-1.31.19-2.12.19-2.44,0-3.78-2.06-5.66-6.17-5.66a14,14,0,0,0-5.69,1.07A31.26,31.26,0,0,0,378,66.3L372.5,102h-14Z" style="fill: none"/>
    </clipPath>
    <clipPath id="clip-path-13">
      <path d="M151.67,102.73v.17H103.44l-1.14-6.43L99.52,80.81,95,55.59a48.1,48.1,0,0,1,56.67,47.14Zm-119.22.17c-.55,0-1.1-.06-1.65-.09a32.27,32.27,0,0,1,1.65-64.5,10.66,10.66,0,0,1,1.6.08A47.63,47.63,0,0,1,78.43,8.1h.08A9.81,9.81,0,0,1,88,16.26l7,39.33A48.19,48.19,0,0,0,64.65,74.38a48.3,48.3,0,0,0-8.23,18c-.33,1.52-.6,3.07-.78,4.64a46.47,46.47,0,0,0-.39,5.77v.09Z" style="fill: none"/>
    </clipPath>
    <clipPath id="clip-path-15">
      <rect x="-0.1" y="8.01" width="152" height="95" style="fill: none"/>
    </clipPath>
    <clipPath id="clip-path-16">
      <rect y="8.1" width="151.67" height="94.79" style="fill: none"/>
    </clipPath>
  </defs>
  <title>visium-crowd-logo-final-02</title>
  <g style="clip-path: url(#clip-path)">
    <g style="clip-path: url(#clip-path-2)">
      <rect x="152.9" y="43.93" width="56.53" height="63.09" style="fill: #4e4e4e"/>
    </g>
  </g>
  <g style="clip-path: url(#clip-path-3)">
    <g style="clip-path: url(#clip-path-2)">
      <rect x="201.04" y="23.01" width="35.67" height="82.39" style="fill: #4e4e4e"/>
    </g>
  </g>
  <g style="clip-path: url(#clip-path-5)">
    <g style="clip-path: url(#clip-path-2)">
      <rect x="226.71" y="43.93" width="54.93" height="63.09" style="fill: #4e4e4e"/>
    </g>
  </g>
  <g style="clip-path: url(#clip-path-7)">
    <g style="clip-path: url(#clip-path-2)">
      <rect x="274.85" y="23.01" width="35.67" height="82.39" style="fill: #4e4e4e"/>
    </g>
  </g>
  <g style="clip-path: url(#clip-path-9)">
    <g style="clip-path: url(#clip-path-2)">
      <rect x="298.91" y="43.93" width="62.95" height="63.09" style="fill: #4e4e4e"/>
    </g>
  </g>
  <g style="clip-path: url(#clip-path-11)">
    <g style="clip-path: url(#clip-path-2)">
      <rect x="353.47" y="43.93" width="93.43" height="63.09" style="fill: #4e4e4e"/>
    </g>
  </g>
  <g style="clip-path: url(#clip-path-13)">
    <g style="clip-path: url(#clip-path-2)">
      <g style="clip-path: url(#clip-path-15)">
        <g style="clip-path: url(#clip-path-16)">
          <rect x="-5" y="3.1" width="161.67" height="104.79" style="fill: #f54a23"/>
        </g>
      </g>
    </g>
  </g>
  <path d="M324.34,39.45a10,10,0,0,1-7.44-2.69q-2.7-2.7-2.7-7.74a15.8,15.8,0,0,1,3.41-10.15,11.32,11.32,0,0,1,9.33-4.26q6.18,0,9.21,4.41l-5.63,4.22a3.56,3.56,0,0,0-3.38-2.11,4.68,4.68,0,0,0-4,2.25,9.06,9.06,0,0,0-1.57,5.34,4.73,4.73,0,0,0,.88,3.07,2.91,2.91,0,0,0,2.4,1.1,5.44,5.44,0,0,0,4.17-2.3l5.68,3.62A12.15,12.15,0,0,1,324.34,39.45Z" style="fill: #f54a23"/>
  <path d="M337.62,39l2.94-24h7.35l-.44,3.29h.1a8.38,8.38,0,0,1,6.86-3.73l-1,8.14a4.21,4.21,0,0,0-4.68.93q-2,1.91-2.67,6.12L345,39Z" style="fill: #f54a23"/>
  <path d="M365.16,39.45a10.05,10.05,0,0,1-7.37-2.71A10.13,10.13,0,0,1,355,29.16a15.5,15.5,0,0,1,3.57-10.31,12,12,0,0,1,9.66-4.24,10.2,10.2,0,0,1,7.47,2.72,10.08,10.08,0,0,1,2.77,7.52,16,16,0,0,1-3.41,10.44Q371.69,39.46,365.16,39.45Zm.54-6.56a4.46,4.46,0,0,0,3.85-2.26A9.41,9.41,0,0,0,371,25.34a4.22,4.22,0,0,0-1-3.23,3.42,3.42,0,0,0-2.35-.93,4.29,4.29,0,0,0-3.74,2.36,9.9,9.9,0,0,0-1.45,5.27,4.37,4.37,0,0,0,1,3.06A3,3,0,0,0,365.7,32.89Z" style="fill: #f54a23"/>
  <path d="M387.94,39.45a5.72,5.72,0,0,1-5.34-2.69c-1.07-1.8-1.42-4.2-1-7.2l2.06-14.51h7.25l-1.79,12.79c-.46,3.37,0,5.06,1.47,5.05.88,0,1.81-.62,2.77-1.86a12,12,0,0,0,1.93-5.79l1.28-10.19h7.1l-1.61,13.09a9.44,9.44,0,0,0,0,3.67,1.34,1.34,0,0,0,1.37,1.08c1,0,2-.74,3-2.23a17.27,17.27,0,0,0,2.18-7.23,32.65,32.65,0,0,0,0-8.38H416a29.09,29.09,0,0,1,0,9.85q-1.08,7.6-4.85,11.08a12.74,12.74,0,0,1-9,3.47c-3.59,0-5.77-1.45-6.56-4.36h-.1a8.49,8.49,0,0,1-3.33,3.21A8.81,8.81,0,0,1,387.94,39.45Z" style="fill: #f54a23"/>
  <path d="M426.21,39.45a6.77,6.77,0,0,1-5.8-2.74,11.51,11.51,0,0,1-2-7.06A17.18,17.18,0,0,1,421.7,19a9.78,9.78,0,0,1,8-4.34,8,8,0,0,1,5.74,2.11h.14L437.25,3h7.4L440.19,39h-7.35l.44-3.52-.15-.05Q430.28,39.45,426.21,39.45Zm2.31-6.51c1.37,0,2.67-.84,3.92-2.53a15,15,0,0,0,2.49-6.87l.1-.69a5.29,5.29,0,0,0-4-1.67,4.27,4.27,0,0,0-3.75,2.5,10.57,10.57,0,0,0-1.45,5.43,4.61,4.61,0,0,0,.76,2.77A2.34,2.34,0,0,0,428.52,32.94Z" style="fill: #f54a23"/>
</svg>
